<svg xmlns="http://www.w3.org/2000/svg" viewBox="0 0 311 54"><title>Google signup button</title><g id="Layer_2" data-name="Layer 2"><g id="Layer_1-2" data-name="Layer 1"><rect width="311" height="54" rx="5.44" ry="5.44" style="fill:#147afb"/><circle cx="30.5" cy="27" r="19.5" style="fill:#fff"/><path d="M23.82,29.5,23,32.62l-3.05.06a12,12,0,0,1-.09-11.21h0l2.72.5,1.19,2.7a7.16,7.16,0,0,0,.07,4.82Z" style="fill:#fbbb00"/><path d="M42.29,24.76A12,12,0,0,1,38,36.36h0l-3.42-.17-.48-3a7.15,7.15,0,0,0,3.08-3.65H30.76V24.76H42.29Z" style="fill:#518ef8"/><path d="M38,36.36h0a12,12,0,0,1-18.08-3.67l3.89-3.18A7.14,7.14,0,0,0,34.1,33.16Z" style="fill:#28b446"/><path d="M38.16,17.76l-3.89,3.18a7.14,7.14,0,0,0-10.52,3.74l-3.91-3.2h0a12,12,0,0,1,18.32-3.72Z" style="fill:#f14336"/><text transform="translate(88.38 32.21)" 
style="font-size:17.829801559448242px;fill:#fff;font-family:Roboto-Medium, Roboto">Login with Google</text></g></g></svg>